# xmcd
#
# Track frame offsets: 
#        150
#        23625
#        41849
#        54899
#        73649
#        96899
#        111824
#        126074
#        142199
#        158884
#        177784
#        192184
#        207933
#        222633
#        246332
#        261256
#        278056
#
# Disc length: 4256 seconds
#
# Revision: 0
# Processed by: cddbd v1.5.2PL0 Copyright (c) Steve Scherf et al.
# Submitted via: ExactAudioCopy v1.3
#
DISCID=01109e11
DTITLE=Bob Seeley - Let's Boogie with Bob Seeley
DYEAR=2015
DGENRE=Blues
TTITLE0=Sing Sing Sing
TTITLE1=Black and Blue
TTITLE2=Boogie Woogie Jump
TTITLE3=Caravan
TTITLE4=Charleston Rag
TTITLE5=Deadman Blues
TTITLE6=Dizzy Fingers
TTITLE7=Remembering Errol
TTITLE8=Roses Of Picardy
TTITLE9=I've Found A New Baby
TTITLE10=Memphis Boogie
TTITLE11=Oh Lady Be Good
TTITLE12=Cotton Club Stomp
TTITLE13=Yesterdays
TTITLE14=Steeple Chase
TTITLE15=Swannee River Boogie
TTITLE16=Mama Don't Allow
EXTD=
EXTT0=
EXTT1=
EXTT2=
EXTT3=
EXTT4=
EXTT5=
EXTT6=
EXTT7=
EXTT8=
EXTT9=
EXTT10=
EXTT11=
EXTT12=
EXTT13=
EXTT14=
EXTT15=
EXTT16=
PLAYORDER=
